<?xml version="1.0" encoding="utf-8" standalone="no"?>
<!DOCTYPE svg PUBLIC "-//W3C//DTD SVG 1.1//EN"
  "http://www.w3.org/Graphics/SVG/1.1/DTD/svg11.dtd">
<svg xmlns:xlink="http://www.w3.org/1999/xlink" width="766.592926pt" height="404.150429pt" viewBox="0 0 766.592926 404.150429" xmlns="http://www.w3.org/2000/svg" version="1.1">
 <metadata>
  <rdf:RDF xmlns:dc="http://purl.org/dc/elements/1.1/" xmlns:cc="http://creativecommons.org/ns#" xmlns:rdf="http://www.w3.org/1999/02/22-rdf-syntax-ns#">
   <cc:Work>
    <dc:type rdf:resource="http://purl.org/dc/dcmitype/StillImage"/>
    <dc:date>2024-05-20T22:58:18.209022</dc:date>
    <dc:format>image/svg+xml</dc:format>
    <dc:creator>
     <cc:Agent>
      <dc:title>Matplotlib v3.8.4, https://matplotlib.org/</dc:title>
     </cc:Agent>
    </dc:creator>
   </cc:Work>
  </rdf:RDF>
 </metadata>
 <defs>
  <style type="text/css">*{stroke-linejoin: round; stroke-linecap: butt}</style>
 </defs>
 <g id="figure_1">
  <g id="patch_1">
   <path d="M 0 404.150429 
L 766.592926 404.150429 
L 766.592926 0 
L 0 0 
z
" style="fill: #ffffff"/>
  </g>
  <g id="axes_1">
   <g id="patch_2">
    <path d="M 50.317492 339.84 
L 608.317492 339.84 
L 608.317492 7.2 
L 50.317492 7.2 
z
" style="fill: #ffffff"/>
   </g>
   <g id="PathCollection_1">
    <path d="M 120.067492 309.616793 
C 123.079349 309.616793 125.968253 308.42017 128.097958 306.290465 
C 130.227662 304.160761 131.424285 301.271857 131.424285 298.26 
C 131.424285 295.248143 130.227662 292.359239 128.097958 290.229535 
C 125.968253 288.09983 123.079349 286.903207 120.067492 286.903207 
C 117.055635 286.903207 114.166731 288.09983 112.037027 290.229535 
C 109.907322 292.359239 108.710699 295.248143 108.710699 298.26 
C 108.710699 301.271857 109.907322 304.160761 112.037027 306.290465 
C 114.166731 308.42017 117.055635 309.616793 120.067492 309.616793 
z
" clip-path="url(#p8cc736ff71)" style="fill: #1f77b4; fill-opacity: 0.6; stroke: #ffffff; stroke-opacity: 0.6; stroke-width: 0.5"/>
    <path d="M 120.067492 82.018254 
C 128.88238 82.018254 137.33742 78.516061 143.570487 72.282994 
C 149.803554 66.049927 153.305746 57.594888 153.305746 48.78 
C 153.305746 39.965112 149.803554 31.510073 143.570487 25.277006 
C 137.33742 19.043939 128.88238 15.541746 120.067492 15.541746 
C 111.252604 15.541746 102.797565 19.043939 96.564498 25.277006 
C 90.331431 31.510073 86.829239 39.965112 86.829239 48.78 
C 86.829239 57.594888 90.331431 66.049927 96.564498 72.282994 
C 102.797565 78.516061 111.252604 82.018254 120.067492 82.018254 
z
" clip-path="url(#p8cc736ff71)" style="fill: #1f77b4; fill-opacity: 0.6; stroke: #ffffff; stroke-opacity: 0.6; stroke-width: 0.5"/>
    <path d="M 259.567492 238.886908 
C 265.875854 238.886908 271.926691 236.380569 276.387376 231.919884 
C 280.848062 227.459199 283.3544 221.408362 283.3544 215.1 
C 283.3544 208.791638 280.848062 202.740801 276.387376 198.280116 
C 271.926691 193.819431 265.875854 191.313092 259.567492 191.313092 
C 253.25913 191.313092 247.208293 193.819431 242.747608 198.280116 
C 238.286923 202.740801 235.780584 208.791638 235.780584 215.1 
C 235.780584 221.408362 238.286923 227.459199 242.747608 231.919884 
C 247.208293 236.380569 253.25913 238.886908 259.567492 238.886908 
z
" clip-path="url(#p8cc736ff71)" style="fill: #1f77b4; fill-opacity: 0.6; stroke: #ffffff; stroke-opacity: 0.6; stroke-width: 0.5"/>
    <path d="M 259.567492 68.775993 
C 264.870492 68.775993 269.957008 66.669089 273.706795 62.919302 
C 277.456581 59.169516 279.563485 54.082999 279.563485 48.78 
C 279.563485 43.477001 277.456581 38.390484 273.706795 34.640698 
C 269.957008 30.890911 264.870492 28.784007 259.567492 28.784007 
C 254.264493 28.784007 249.177977 30.890911 245.42819 34.640698 
C 241.678403 38.390484 239.571499 43.477001 239.571499 48.78 
C 239.571499 54.082999 241.678403 59.169516 245.42819 62.919302 
C 249.177977 66.669089 254.264493 68.775993 259.567492 68.775993 
z
" clip-path="url(#p8cc736ff71)" style="fill: #1f77b4; fill-opacity: 0.6; stroke: #ffffff; stroke-opacity: 0.6; stroke-width: 0.5"/>
    <path d="M 399.067492 173.830682 
C 410.177031 173.830682 420.833047 169.416816 428.688678 161.561185 
C 436.544308 153.705555 440.958174 143.049539 440.958174 131.94 
C 440.958174 120.830461 436.544308 110.174445 428.688678 102.318815 
C 420.833047 94.463184 410.177031 90.049318 399.067492 90.049318 
C 387.957953 90.049318 377.301937 94.463184 369.446307 102.318815 
C 361.590677 110.174445 357.17681 120.830461 357.17681 131.94 
C 357.17681 143.049539 361.590677 153.705555 369.446307 161.561185 
C 377.301937 169.416816 387.957953 173.830682 399.067492 173.830682 
z
" clip-path="url(#p8cc736ff71)" style="fill: #1f77b4; fill-opacity: 0.6; stroke: #ffffff; stroke-opacity: 0.6; stroke-width: 0.5"/>
    <path d="M 538.567492 335.911192 
C 548.552705 335.911192 558.130294 331.944025 565.190905 324.883413 
C 572.251517 317.822801 576.218684 308.245213 576.218684 298.26 
C 576.218684 288.274787 572.251517 278.697199 565.190905 271.636587 
C 558.130294 264.575975 548.552705 260.608808 538.567492 260.608808 
C 528.582279 260.608808 519.004691 264.575975 511.944079 271.636587 
C 504.883467 278.697199 500.9163 288.274787 500.9163 298.26 
C 500.9163 308.245213 504.883467 317.822801 511.944079 324.883413 
C 519.004691 331.944025 528.582279 335.911192 538.567492 335.911192 
z
" clip-path="url(#p8cc736ff71)" style="fill: #1f77b4; fill-opacity: 0.6; stroke: #ffffff; stroke-opacity: 0.6; stroke-width: 0.5"/>
    <path d="M 538.567492 254.904017 
C 549.123641 254.904017 559.248858 250.710014 566.713182 243.24569 
C 574.177507 235.781366 578.371509 225.656149 578.371509 215.1 
C 578.371509 204.543851 574.177507 194.418634 566.713182 186.95431 
C 559.248858 179.489986 549.123641 175.295983 538.567492 175.295983 
C 528.011344 175.295983 517.886126 179.489986 510.421802 186.95431 
C 502.957478 194.418634 498.763475 204.543851 498.763475 215.1 
C 498.763475 225.656149 502.957478 235.781366 510.421802 243.24569 
C 517.886126 250.710014 528.011344 254.904017 538.567492 254.904017 
z
" clip-path="url(#p8cc736ff71)" style="fill: #1f77b4; fill-opacity: 0.6; stroke: #ffffff; stroke-opacity: 0.6; stroke-width: 0.5"/>
    <path d="M 538.567492 89.603997 
C 549.394143 89.603997 559.778819 85.302523 567.434417 77.646925 
C 575.090015 69.991327 579.391489 59.606651 579.391489 48.78 
C 579.391489 37.953349 575.090015 27.568673 567.434417 19.913075 
C 559.778819 12.257477 549.394143 7.956003 538.567492 7.956003 
C 527.740842 7.956003 517.356165 12.257477 509.700567 19.913075 
C 502.044969 27.568673 497.743495 37.953349 497.743495 48.78 
C 497.743495 59.606651 502.044969 69.991327 509.700567 77.646925 
C 517.356165 85.302523 527.740842 89.603997 538.567492 89.603997 
z
" clip-path="url(#p8cc736ff71)" style="fill: #1f77b4; fill-opacity: 0.6; stroke: #ffffff; stroke-opacity: 0.6; stroke-width: 0.5"/>
   </g>
   <g id="PathCollection_2">
    <path d="M 120.067492 301.888705 
C 121.029836 301.888705 121.952894 301.506362 122.633374 300.825882 
C 123.313854 300.145402 123.696197 299.222344 123.696197 298.26 
C 123.696197 297.297656 123.313854 296.374598 122.633374 295.694118 
C 121.952894 295.013638 121.029836 294.631295 120.067492 294.631295 
C 119.105148 294.631295 118.18209 295.013638 117.50161 295.694118 
C 116.82113 296.374598 116.438787 297.297656 116.438787 298.26 
C 116.438787 299.222344 116.82113 300.145402 117.50161 300.825882 
C 118.18209 301.506362 119.105148 301.888705 120.067492 301.888705 
z
" clip-path="url(#p8cc736ff71)" style="fill: #ff7f0e; fill-opacity: 0.6; stroke: #ffffff; stroke-opacity: 0.6; stroke-width: 0.5"/>
    <path d="M 120.067492 59.105636 
C 122.805883 59.105636 125.432485 58.017661 127.368819 56.081327 
C 129.305154 54.144992 130.393128 51.518391 130.393128 48.78 
C 130.393128 46.041609 129.305154 43.415008 127.368819 41.478673 
C 125.432485 39.542339 122.805883 38.454364 120.067492 38.454364 
C 117.329102 38.454364 114.7025 39.542339 112.766165 41.478673 
C 110.829831 43.415008 109.741857 46.041609 109.741857 48.78 
C 109.741857 51.518391 110.829831 54.144992 112.766165 56.081327 
C 114.7025 58.017661 117.329102 59.105636 120.067492 59.105636 
z
" clip-path="url(#p8cc736ff71)" style="fill: #ff7f0e; fill-opacity: 0.6; stroke: #ffffff; stroke-opacity: 0.6; stroke-width: 0.5"/>
    <path d="M 259.567492 225.296445 
C 262.271621 225.296445 264.86536 224.222084 266.777468 222.309976 
C 268.689576 220.397868 269.763938 217.804129 269.763938 215.1 
C 269.763938 212.395871 268.689576 209.802132 266.777468 207.890024 
C 264.86536 205.977916 262.271621 204.903555 259.567492 204.903555 
C 256.863363 204.903555 254.269624 205.977916 252.357516 207.890024 
C 250.445409 209.802132 249.371047 212.395871 249.371047 215.1 
C 249.371047 217.804129 250.445409 220.397868 252.357516 222.309976 
C 254.269624 224.222084 256.863363 225.296445 259.567492 225.296445 
z
" clip-path="url(#p8cc736ff71)" style="fill: #ff7f0e; fill-opacity: 0.6; stroke: #ffffff; stroke-opacity: 0.6; stroke-width: 0.5"/>
    <path d="M 259.567492 56.068861 
C 261.500521 56.068861 263.354638 55.300861 264.721495 53.934003 
C 266.088353 52.567146 266.856354 50.713029 266.856354 48.78 
C 266.856354 46.846971 266.088353 44.992854 264.721495 43.625997 
C 263.354638 42.259139 261.500521 41.491139 259.567492 41.491139 
C 257.634464 41.491139 255.780346 42.259139 254.413489 43.625997 
C 253.046631 44.992854 252.278631 46.846971 252.278631 48.78 
C 252.278631 50.713029 253.046631 52.567146 254.413489 53.934003 
C 255.780346 55.300861 257.634464 56.068861 259.567492 56.068861 
z
" clip-path="url(#p8cc736ff71)" style="fill: #ff7f0e; fill-opacity: 0.6; stroke: #ffffff; stroke-opacity: 0.6; stroke-width: 0.5"/>
    <path d="M 399.067492 143.3906 
C 402.104227 143.3906 405.016994 142.184093 407.164289 140.036797 
C 409.311585 137.889501 410.518093 134.976735 410.518093 131.94 
C 410.518093 128.903265 409.311585 125.990499 407.164289 123.843203 
C 405.016994 121.695907 402.104227 120.4894 399.067492 120.4894 
C 396.030757 120.4894 393.117991 121.695907 390.970695 123.843203 
C 388.823399 125.990499 387.616892 128.903265 387.616892 131.94 
C 387.616892 134.976735 388.823399 137.889501 390.970695 140.036797 
C 393.117991 142.184093 396.030757 143.3906 399.067492 143.3906 
z
" clip-path="url(#p8cc736ff71)" style="fill: #ff7f0e; fill-opacity: 0.6; stroke: #ffffff; stroke-opacity: 0.6; stroke-width: 0.5"/>
    <path d="M 538.567492 303.190137 
C 539.87498 303.190137 541.129092 302.670667 542.053625 301.746133 
C 542.978159 300.8216 543.497629 299.567488 543.497629 298.26 
C 543.497629 296.952512 542.978159 295.6984 542.053625 294.773867 
C 541.129092 293.849333 539.87498 293.329863 538.567492 293.329863 
C 537.260005 293.329863 536.005892 293.849333 535.081359 294.773867 
C 534.156826 295.6984 533.637355 296.952512 533.637355 298.26 
C 533.637355 299.567488 534.156826 300.8216 535.081359 301.746133 
C 536.005892 302.670667 537.260005 303.190137 538.567492 303.190137 
z
" clip-path="url(#p8cc736ff71)" style="fill: #ff7f0e; fill-opacity: 0.6; stroke: #ffffff; stroke-opacity: 0.6; stroke-width: 0.5"/>
    <path d="M 538.567492 223.380625 
C 540.76354 223.380625 542.869938 222.508126 544.422778 220.955286 
C 545.975618 219.402446 546.848117 217.296047 546.848117 215.1 
C 546.848117 212.903953 545.975618 210.797554 544.422778 209.244714 
C 542.869938 207.691874 540.76354 206.819375 538.567492 206.819375 
C 536.371445 206.819375 534.265046 207.691874 532.712206 209.244714 
C 531.159366 210.797554 530.286867 212.903953 530.286867 215.1 
C 530.286867 217.296047 531.159366 219.402446 532.712206 220.955286 
C 534.265046 222.508126 536.371445 223.380625 538.567492 223.380625 
z
" clip-path="url(#p8cc736ff71)" style="fill: #ff7f0e; fill-opacity: 0.6; stroke: #ffffff; stroke-opacity: 0.6; stroke-width: 0.5"/>
    <path d="M 538.567492 59.46913 
C 541.402283 59.46913 544.121349 58.342856 546.125848 56.338356 
C 548.130348 54.333857 549.256622 51.61479 549.256622 48.78 
C 549.256622 45.94521 548.130348 43.226143 546.125848 41.221644 
C 544.121349 39.217144 541.402283 38.09087 538.567492 38.09087 
C 535.732702 38.09087 533.013635 39.217144 531.009136 41.221644 
C 529.004636 43.226143 527.878362 45.94521 527.878362 48.78 
C 527.878362 51.61479 529.004636 54.333857 531.009136 56.338356 
C 533.013635 58.342856 535.732702 59.46913 538.567492 59.46913 
z
" clip-path="url(#p8cc736ff71)" style="fill: #ff7f0e; fill-opacity: 0.6; stroke: #ffffff; stroke-opacity: 0.6; stroke-width: 0.5"/>
   </g>
   <g id="matplotlib.axis_1">
    <g id="xtick_1">
     <g id="line2d_1">
      <path d="M 50.317492 339.84 
L 50.317492 7.2 
" clip-path="url(#p8cc736ff71)" style="fill: none; stroke-dasharray: 2.96,1.28; stroke-dashoffset: 0; stroke: #b0b0b0; stroke-width: 0.8"/>
     </g>
     <g id="line2d_2">
      <defs>
       <path id="m3b2a6a4989" d="M 0 0 
L 0 3.5 
" style="stroke: #000000; stroke-width: 0.8"/>
      </defs>
      <g>
       <use xlink:href="#m3b2a6a4989" x="50.317492" y="339.84" style="stroke: #000000; stroke-width: 0.8"/>
      </g>
     </g>
    </g>
    <g id="xtick_2">
     <g id="line2d_3">
      <path d="M 120.067492 339.84 
L 120.067492 7.2 
" clip-path="url(#p8cc736ff71)" style="fill: none; stroke-dasharray: 2.96,1.28; stroke-dashoffset: 0; stroke: #b0b0b0; stroke-width: 0.8"/>
     </g>
     <g id="line2d_4">
      <g>
       <use xlink:href="#m3b2a6a4989" x="120.067492" y="339.84" style="stroke: #000000; stroke-width: 0.8"/>
      </g>
     </g>
     <g id="text_1">
      <!-- 1 -->
      <g transform="translate(116.165499 357.909588) scale(0.16 -0.16)">
       <defs>
        <path id="CMSS17-31" d="M 1818 4288 
L 1696 4288 
C 1350 3940 947 3890 538 3890 
L 538 3520 
C 723 3520 1024 3520 1325 3667 
L 1325 369 
L 570 369 
L 570 0 
L 2573 0 
L 2573 369 
L 1818 369 
L 1818 4288 
z
" transform="scale(0.015625)"/>
       </defs>
       <use xlink:href="#CMSS17-31" transform="scale(0.996264)"/>
      </g>
     </g>
    </g>
    <g id="xtick_3">
     <g id="line2d_5">
      <path d="M 189.817492 339.84 
L 189.817492 7.2 
" clip-path="url(#p8cc736ff71)" style="fill: none; stroke-dasharray: 2.96,1.28; stroke-dashoffset: 0; stroke: #b0b0b0; stroke-width: 0.8"/>
     </g>
     <g id="line2d_6">
      <g>
       <use xlink:href="#m3b2a6a4989" x="189.817492" y="339.84" style="stroke: #000000; stroke-width: 0.8"/>
      </g>
     </g>
    </g>
    <g id="xtick_4">
     <g id="line2d_7">
      <path d="M 259.567492 339.84 
L 259.567492 7.2 
" clip-path="url(#p8cc736ff71)" style="fill: none; stroke-dasharray: 2.96,1.28; stroke-dashoffset: 0; stroke: #b0b0b0; stroke-width: 0.8"/>
     </g>
     <g id="line2d_8">
      <g>
       <use xlink:href="#m3b2a6a4989" x="259.567492" y="339.84" style="stroke: #000000; stroke-width: 0.8"/>
      </g>
     </g>
     <g id="text_2">
      <!-- 2 -->
      <g transform="translate(255.665499 357.909588) scale(0.16 -0.16)">
       <defs>
        <path id="CMSS17-32" d="M 1651 1357 
C 1830 1541 2099 1764 2285 1987 
C 2464 2204 2701 2511 2701 2957 
C 2701 3657 2227 4288 1421 4288 
C 787 4288 422 3893 250 3274 
L 499 2929 
C 640 3510 838 3880 1338 3880 
C 1888 3880 2195 3433 2195 2942 
C 2195 2355 1747 1901 1408 1563 
C 1030 1187 659 804 301 408 
L 301 0 
L 2701 0 
L 2701 433 
L 1613 433 
C 1536 433 1459 433 1382 433 
L 742 433 
L 742 439 
L 1651 1357 
z
" transform="scale(0.015625)"/>
       </defs>
       <use xlink:href="#CMSS17-32" transform="scale(0.996264)"/>
      </g>
     </g>
    </g>
    <g id="xtick_5">
     <g id="line2d_9">
      <path d="M 329.317492 339.84 
L 329.317492 7.2 
" clip-path="url(#p8cc736ff71)" style="fill: none; stroke-dasharray: 2.96,1.28; stroke-dashoffset: 0; stroke: #b0b0b0; stroke-width: 0.8"/>
     </g>
     <g id="line2d_10">
      <g>
       <use xlink:href="#m3b2a6a4989" x="329.317492" y="339.84" style="stroke: #000000; stroke-width: 0.8"/>
      </g>
     </g>
    </g>
    <g id="xtick_6">
     <g id="line2d_11">
      <path d="M 399.067492 339.84 
L 399.067492 7.2 
" clip-path="url(#p8cc736ff71)" style="fill: none; stroke-dasharray: 2.96,1.28; stroke-dashoffset: 0; stroke: #b0b0b0; stroke-width: 0.8"/>
     </g>
     <g id="line2d_12">
      <g>
       <use xlink:href="#m3b2a6a4989" x="399.067492" y="339.84" style="stroke: #000000; stroke-width: 0.8"/>
      </g>
     </g>
     <g id="text_3">
      <!-- 3 -->
      <g transform="translate(395.165499 357.909588) scale(0.16 -0.16)">
       <defs>
        <path id="CMSS17-33" d="M 1005 2025 
L 1440 2025 
C 2042 2025 2214 1507 2214 1146 
C 2214 653 1933 267 1472 267 
C 1114 267 608 444 320 912 
C 275 691 275 678 250 526 
C 550 88 1037 -128 1485 -128 
C 2214 -128 2752 473 2752 1138 
C 2752 1638 2400 2057 1920 2215 
C 2304 2424 2586 2816 2586 3273 
C 2586 3805 2093 4229 1491 4229 
C 941 4229 512 3892 333 3530 
C 378 3468 493 3284 550 3189 
C 691 3562 1056 3840 1485 3840 
C 1843 3840 2080 3607 2080 3271 
C 2080 2923 1856 2543 1478 2455 
C 1453 2455 1056 2417 1005 2411 
L 1005 2025 
z
" transform="scale(0.015625)"/>
       </defs>
       <use xlink:href="#CMSS17-33" transform="scale(0.996264)"/>
      </g>
     </g>
    </g>
    <g id="xtick_7">
     <g id="line2d_13">
      <path d="M 468.817492 339.84 
L 468.817492 7.2 
" clip-path="url(#p8cc736ff71)" style="fill: none; stroke-dasharray: 2.96,1.28; stroke-dashoffset: 0; stroke: #b0b0b0; stroke-width: 0.8"/>
     </g>
     <g id="line2d_14">
      <g>
       <use xlink:href="#m3b2a6a4989" x="468.817492" y="339.84" style="stroke: #000000; stroke-width: 0.8"/>
      </g>
     </g>
    </g>
    <g id="xtick_8">
     <g id="line2d_15">
      <path d="M 538.567492 339.84 
L 538.567492 7.2 
" clip-path="url(#p8cc736ff71)" style="fill: none; stroke-dasharray: 2.96,1.28; stroke-dashoffset: 0; stroke: #b0b0b0; stroke-width: 0.8"/>
     </g>
     <g id="line2d_16">
      <g>
       <use xlink:href="#m3b2a6a4989" x="538.567492" y="339.84" style="stroke: #000000; stroke-width: 0.8"/>
      </g>
     </g>
     <g id="text_4">
      <!-- 4 -->
      <g transform="translate(534.665499 357.909588) scale(0.16 -0.16)">
       <defs>
        <path id="CMSS17-34" d="M 2253 1088 
L 2835 1088 
L 2835 1477 
L 2253 1477 
L 2253 4192 
L 1690 4192 
L 166 1477 
L 166 1088 
L 1747 1088 
L 1747 0 
L 2253 0 
L 2253 1088 
z
M 659 1477 
C 1030 2127 1766 3439 1766 3885 
L 1766 1477 
L 659 1477 
z
" transform="scale(0.015625)"/>
       </defs>
       <use xlink:href="#CMSS17-34" transform="scale(0.996264)"/>
      </g>
     </g>
    </g>
    <g id="text_5">
     <!-- $n_1$ -->
     <g transform="translate(321.003987 393.462365) scale(0.18 -0.18)">
      <defs>
       <path id="CMMI12-6e" d="M 1318 1871 
C 1331 1910 1491 2229 1728 2433 
C 1894 2586 2112 2689 2362 2689 
C 2618 2689 2707 2497 2707 2242 
C 2707 1878 2445 1150 2317 805 
C 2259 651 2227 568 2227 453 
C 2227 166 2426 -64 2733 -64 
C 3328 -64 3552 875 3552 913 
C 3552 945 3526 971 3488 971 
C 3430 971 3424 952 3392 843 
C 3245 319 3002 64 2752 64 
C 2688 64 2586 64 2586 269 
C 2586 429 2656 621 2694 710 
C 2822 1063 3091 1780 3091 2145 
C 3091 2528 2867 2816 2381 2816 
C 1811 2816 1510 2415 1395 2255 
C 1376 2618 1114 2816 832 2816 
C 627 2816 486 2695 378 2478 
C 262 2248 173 1865 173 1839 
C 173 1814 198 1782 243 1782 
C 294 1782 301 1788 339 1935 
C 442 2325 557 2689 813 2689 
C 960 2689 1011 2586 1011 2395 
C 1011 2254 947 2005 902 1807 
L 723 1118 
C 698 996 627 709 595 594 
C 550 428 480 128 480 96 
C 480 6 550 -64 646 -64 
C 723 -64 813 -26 864 70 
C 877 102 934 326 966 453 
L 1107 1028 
L 1318 1871 
z
" transform="scale(0.015625)"/>
       <path id="CMR17-31" d="M 1702 4058 
C 1702 4192 1696 4192 1606 4192 
C 1357 3916 979 3827 621 3827 
C 602 3827 570 3827 563 3808 
C 557 3795 557 3782 557 3648 
C 755 3648 1088 3686 1344 3839 
L 1344 461 
C 1344 236 1331 160 781 160 
L 589 160 
L 589 0 
C 896 0 1216 0 1523 0 
C 1830 0 2150 0 2458 0 
L 2458 160 
L 2266 160 
C 1715 160 1702 230 1702 458 
L 1702 4058 
z
" transform="scale(0.015625)"/>
      </defs>
      <use xlink:href="#CMMI12-6e" transform="scale(0.996264)"/>
      <use xlink:href="#CMR17-31" transform="translate(58.230047 -14.943915) scale(0.697382)"/>
     </g>
    </g>
   </g>
   <g id="matplotlib.axis_2">
    <g id="ytick_1">
     <g id="line2d_17">
      <path d="M 50.317492 339.84 
L 608.317492 339.84 
" clip-path="url(#p8cc736ff71)" style="fill: none; stroke-dasharray: 2.96,1.28; stroke-dashoffset: 0; stroke: #b0b0b0; stroke-width: 0.8"/>
     </g>
     <g id="line2d_18">
      <defs>
       <path id="mb78d54e702" d="M 0 0 
L -3.5 0 
" style="stroke: #000000; stroke-width: 0.8"/>
      </defs>
      <g>
       <use xlink:href="#mb78d54e702" x="50.317492" y="339.84" style="stroke: #000000; stroke-width: 0.8"/>
      </g>
     </g>
    </g>
    <g id="ytick_2">
     <g id="line2d_19">
      <path d="M 50.317492 298.26 
L 608.317492 298.26 
" clip-path="url(#p8cc736ff71)" style="fill: none; stroke-dasharray: 2.96,1.28; stroke-dashoffset: 0; stroke: #b0b0b0; stroke-width: 0.8"/>
     </g>
     <g id="line2d_20">
      <g>
       <use xlink:href="#mb78d54e702" x="50.317492" y="298.26" style="stroke: #000000; stroke-width: 0.8"/>
      </g>
     </g>
     <g id="text_6">
      <!-- 1 -->
      <g transform="translate(35.513505 303.794794) scale(0.16 -0.16)">
       <use xlink:href="#CMSS17-31" transform="scale(0.996264)"/>
      </g>
     </g>
    </g>
    <g id="ytick_3">
     <g id="line2d_21">
      <path d="M 50.317492 256.68 
L 608.317492 256.68 
" clip-path="url(#p8cc736ff71)" style="fill: none; stroke-dasharray: 2.96,1.28; stroke-dashoffset: 0; stroke: #b0b0b0; stroke-width: 0.8"/>
     </g>
     <g id="line2d_22">
      <g>
       <use xlink:href="#mb78d54e702" x="50.317492" y="256.68" style="stroke: #000000; stroke-width: 0.8"/>
      </g>
     </g>
    </g>
    <g id="ytick_4">
     <g id="line2d_23">
      <path d="M 50.317492 215.1 
L 608.317492 215.1 
" clip-path="url(#p8cc736ff71)" style="fill: none; stroke-dasharray: 2.96,1.28; stroke-dashoffset: 0; stroke: #b0b0b0; stroke-width: 0.8"/>
     </g>
     <g id="line2d_24">
      <g>
       <use xlink:href="#mb78d54e702" x="50.317492" y="215.1" style="stroke: #000000; stroke-width: 0.8"/>
      </g>
     </g>
     <g id="text_7">
      <!-- 2 -->
      <g transform="translate(35.513505 220.634794) scale(0.16 -0.16)">
       <use xlink:href="#CMSS17-32" transform="scale(0.996264)"/>
      </g>
     </g>
    </g>
    <g id="ytick_5">
     <g id="line2d_25">
      <path d="M 50.317492 173.52 
L 608.317492 173.52 
" clip-path="url(#p8cc736ff71)" style="fill: none; stroke-dasharray: 2.96,1.28; stroke-dashoffset: 0; stroke: #b0b0b0; stroke-width: 0.8"/>
     </g>
     <g id="line2d_26">
      <g>
       <use xlink:href="#mb78d54e702" x="50.317492" y="173.52" style="stroke: #000000; stroke-width: 0.8"/>
      </g>
     </g>
    </g>
    <g id="ytick_6">
     <g id="line2d_27">
      <path d="M 50.317492 131.94 
L 608.317492 131.94 
" clip-path="url(#p8cc736ff71)" style="fill: none; stroke-dasharray: 2.96,1.28; stroke-dashoffset: 0; stroke: #b0b0b0; stroke-width: 0.8"/>
     </g>
     <g id="line2d_28">
      <g>
       <use xlink:href="#mb78d54e702" x="50.317492" y="131.94" style="stroke: #000000; stroke-width: 0.8"/>
      </g>
     </g>
     <g id="text_8">
      <!-- 3 -->
      <g transform="translate(35.513505 137.474794) scale(0.16 -0.16)">
       <use xlink:href="#CMSS17-33" transform="scale(0.996264)"/>
      </g>
     </g>
    </g>
    <g id="ytick_7">
     <g id="line2d_29">
      <path d="M 50.317492 90.36 
L 608.317492 90.36 
" clip-path="url(#p8cc736ff71)" style="fill: none; stroke-dasharray: 2.96,1.28; stroke-dashoffset: 0; stroke: #b0b0b0; stroke-width: 0.8"/>
     </g>
     <g id="line2d_30">
      <g>
       <use xlink:href="#mb78d54e702" x="50.317492" y="90.36" style="stroke: #000000; stroke-width: 0.8"/>
      </g>
     </g>
    </g>
    <g id="ytick_8">
     <g id="line2d_31">
      <path d="M 50.317492 48.78 
L 608.317492 48.78 
" clip-path="url(#p8cc736ff71)" style="fill: none; stroke-dasharray: 2.96,1.28; stroke-dashoffset: 0; stroke: #b0b0b0; stroke-width: 0.8"/>
     </g>
     <g id="line2d_32">
      <g>
       <use xlink:href="#mb78d54e702" x="50.317492" y="48.78" style="stroke: #000000; stroke-width: 0.8"/>
      </g>
     </g>
     <g id="text_9">
      <!-- 4 -->
      <g transform="translate(35.513505 54.314794) scale(0.16 -0.16)">
       <use xlink:href="#CMSS17-34" transform="scale(0.996264)"/>
      </g>
     </g>
    </g>
    <g id="text_10">
     <!-- $n_2$ -->
     <g transform="translate(7.2 170.031936) scale(0.18 -0.18)">
      <defs>
       <path id="CMR17-32" d="M 2669 989 
L 2554 989 
C 2490 536 2438 459 2413 420 
C 2381 369 1920 369 1830 369 
L 602 369 
C 832 619 1280 1072 1824 1597 
C 2214 1967 2669 2402 2669 3035 
C 2669 3790 2067 4224 1395 4224 
C 691 4224 262 3604 262 3030 
C 262 2780 448 2748 525 2748 
C 589 2748 781 2787 781 3010 
C 781 3207 614 3264 525 3264 
C 486 3264 448 3258 422 3245 
C 544 3790 915 4058 1306 4058 
C 1862 4058 2227 3617 2227 3035 
C 2227 2479 1901 2000 1536 1584 
L 262 146 
L 262 0 
L 2515 0 
L 2669 989 
z
" transform="scale(0.015625)"/>
      </defs>
      <use xlink:href="#CMMI12-6e" transform="scale(0.996264)"/>
      <use xlink:href="#CMR17-32" transform="translate(58.230047 -14.943915) scale(0.697382)"/>
     </g>
    </g>
   </g>
   <g id="patch_3">
    <path d="M 50.317492 339.84 
L 50.317492 7.2 
" style="fill: none; stroke: #000000; stroke-width: 0.8; stroke-linejoin: miter; stroke-linecap: square"/>
   </g>
   <g id="patch_4">
    <path d="M 50.317492 339.84 
L 608.317492 339.84 
" style="fill: none; stroke: #000000; stroke-width: 0.8; stroke-linejoin: miter; stroke-linecap: square"/>
   </g>
   <g id="text_11">
    <!-- init: 105.34 -->
    <g transform="translate(134.017492 275.332193) scale(0.12 -0.12)">
     <defs>
      <path id="CMSS17-69" d="M 979 4183 
L 442 4183 
L 442 3648 
L 979 3648 
L 979 4183 
z
M 947 2739 
L 474 2739 
L 474 0 
L 947 0 
L 947 2739 
z
" transform="scale(0.015625)"/>
      <path id="CMSS17-6e" d="M 2618 1877 
C 2618 2283 2522 2816 1798 2816 
C 1389 2816 1120 2606 941 2389 
L 941 2758 
L 474 2758 
L 474 0 
L 960 0 
L 960 1559 
C 960 1964 1114 2428 1549 2428 
C 2112 2428 2131 2048 2131 1829 
L 2131 0 
L 2618 0 
L 2618 1877 
z
" transform="scale(0.015625)"/>
      <path id="CMSS17-74" d="M 1069 2368 
L 1901 2368 
L 1901 2737 
L 1069 2737 
L 1069 3520 
L 614 3520 
L 614 2737 
L 109 2737 
L 109 2368 
L 602 2368 
L 602 749 
C 602 384 685 -64 1107 -64 
C 1427 -64 1722 25 2003 172 
L 1901 548 
C 1747 414 1562 337 1363 337 
C 1082 337 1069 696 1069 856 
L 1069 2368 
z
" transform="scale(0.015625)"/>
      <path id="CMSS17-3a" d="M 1088 2749 
L 576 2749 
L 576 2240 
L 1088 2240 
L 1088 2749 
z
M 576 510 
L 576 0 
L 1088 0 
L 1088 510 
L 576 510 
z
" transform="scale(0.015625)"/>
      <path id="CMSS17-30" d="M 2758 2044 
C 2758 2405 2752 3077 2490 3596 
C 2227 4096 1805 4229 1504 4229 
C 1069 4229 698 3975 506 3570 
C 301 3146 243 2709 243 2044 
C 243 1589 262 1031 493 543 
C 755 5 1197 -128 1498 -128 
C 1894 -128 2278 81 2496 518 
C 2720 974 2758 1474 2758 2044 
z
M 1498 261 
C 1011 261 864 811 819 995 
C 742 1310 730 1614 730 2114 
C 730 2506 730 2948 851 3297 
C 998 3701 1254 3840 1498 3840 
C 1971 3840 2125 3372 2176 3208 
C 2272 2873 2272 2481 2272 2114 
C 2272 1526 2272 261 1498 261 
z
" transform="scale(0.015625)"/>
      <path id="CMSS17-35" d="M 934 3752 
L 2502 3752 
L 2502 4160 
L 467 4160 
L 467 1781 
L 896 1781 
C 1011 2046 1248 2240 1555 2240 
C 1843 2240 2163 1989 2163 1266 
C 2163 493 1709 267 1376 267 
C 966 267 589 512 422 851 
L 218 499 
C 512 49 992 -128 1376 -128 
C 2118 -128 2701 497 2701 1253 
C 2701 2030 2182 2629 1562 2629 
C 1338 2629 1120 2553 934 2399 
L 934 3752 
z
" transform="scale(0.015625)"/>
      <path id="CMSS17-2e" d="M 1088 510 
L 576 510 
L 576 0 
L 1088 0 
L 1088 510 
z
" transform="scale(0.015625)"/>
     </defs>
     <use xlink:href="#CMSS17-69" transform="scale(0.996264)"/>
     <use xlink:href="#CMSS17-6e" transform="translate(22.180723 0) scale(0.996264)"/>
     <use xlink:href="#CMSS17-69" transform="translate(70.385666 0) scale(0.996264)"/>
     <use xlink:href="#CMSS17-74" transform="translate(92.566389 0) scale(0.996264)"/>
     <use xlink:href="#CMSS17-3a" transform="translate(126.397956 0) scale(0.996264)"/>
     <use xlink:href="#CMSS17-31" transform="translate(194.060968 0) scale(0.996264)"/>
     <use xlink:href="#CMSS17-30" transform="translate(240.904591 0) scale(0.996264)"/>
     <use xlink:href="#CMSS17-35" transform="translate(287.748215 0) scale(0.996264)"/>
     <use xlink:href="#CMSS17-2e" transform="translate(334.591838 0) scale(0.996264)"/>
     <use xlink:href="#CMSS17-33" transform="translate(360.616043 0) scale(0.996264)"/>
     <use xlink:href="#CMSS17-34" transform="translate(407.459667 0) scale(0.996264)"/>
    </g>
    <!-- fit: 5159.07 -->
    <g transform="translate(134.017492 287.619404) scale(0.12 -0.12)">
     <defs>
      <path id="CMSS17-c" d="M 2752 4416 
L 2240 4416 
L 2240 3906 
L 2752 3906 
L 2752 4416 
z
M 2733 2737 
L 2259 2737 
L 2259 0 
L 2733 0 
L 2733 2737 
z
M 1075 2368 
L 1773 2368 
L 1773 2737 
L 1062 2737 
L 1062 3578 
C 1062 3919 1216 4092 1421 4092 
C 1542 4092 1664 4056 1773 3992 
L 1773 4410 
C 1722 4428 1574 4480 1421 4480 
C 941 4480 602 3993 602 3372 
L 602 2737 
L 160 2737 
L 160 2368 
L 602 2368 
L 602 0 
L 1075 0 
L 1075 2368 
z
" transform="scale(0.015625)"/>
      <path id="CMSS17-39" d="M 435 174 
C 614 21 845 -128 1235 -128 
C 2010 -128 2752 721 2752 2095 
C 2752 3932 1952 4229 1523 4229 
C 1094 4229 819 4041 582 3741 
C 301 3397 250 3090 250 2733 
C 250 2307 326 2045 506 1745 
C 749 1357 973 1275 1222 1275 
C 1600 1275 1978 1459 2234 1776 
C 2189 902 1798 267 1235 267 
C 1005 267 819 339 634 516 
L 435 174 
z
M 2214 2746 
C 2221 2703 2221 2622 2221 2596 
C 2221 2074 1914 1664 1466 1664 
C 1171 1664 1018 1813 902 2006 
C 762 2249 755 2485 755 2733 
C 755 2976 755 3244 934 3511 
C 1069 3703 1235 3840 1523 3840 
C 2112 3840 2208 3000 2214 2746 
z
" transform="scale(0.015625)"/>
      <path id="CMSS17-37" d="M 1389 3776 
C 1466 3776 1542 3776 1619 3776 
L 2355 3776 
C 1440 2711 915 1365 915 -32 
L 1427 -32 
C 1427 1323 1875 2696 2752 3795 
L 2752 4209 
L 250 4209 
L 250 3776 
L 1389 3776 
z
" transform="scale(0.015625)"/>
     </defs>
     <use xlink:href="#CMSS17-c" transform="scale(0.996264)"/>
     <use xlink:href="#CMSS17-74" transform="translate(50.126737 0) scale(0.996264)"/>
     <use xlink:href="#CMSS17-3a" transform="translate(83.958304 0) scale(0.996264)"/>
     <use xlink:href="#CMSS17-35" transform="translate(151.621316 0) scale(0.996264)"/>
     <use xlink:href="#CMSS17-31" transform="translate(198.464939 0) scale(0.996264)"/>
     <use xlink:href="#CMSS17-35" transform="translate(245.308563 0) scale(0.996264)"/>
     <use xlink:href="#CMSS17-39" transform="translate(292.152186 0) scale(0.996264)"/>
     <use xlink:href="#CMSS17-2e" transform="translate(338.99581 0) scale(0.996264)"/>
     <use xlink:href="#CMSS17-30" transform="translate(365.020015 0) scale(0.996264)"/>
     <use xlink:href="#CMSS17-37" transform="translate(411.863638 0) scale(0.996264)"/>
    </g>
   </g>
   <g id="text_12">
    <!-- init: 852.95 -->
    <g transform="translate(134.017492 25.852193) scale(0.12 -0.12)">
     <defs>
      <path id="CMSS17-38" d="M 1933 2222 
C 2419 2380 2669 2760 2669 3134 
C 2669 3722 2157 4229 1504 4229 
C 826 4229 333 3708 333 3144 
C 333 2780 576 2403 1069 2241 
C 442 1997 250 1512 250 1149 
C 250 446 819 -128 1498 -128 
C 2202 -128 2752 455 2752 1138 
C 2752 1557 2502 2000 1933 2222 
z
M 1504 2432 
C 1075 2432 787 2712 787 3136 
C 787 3566 1075 3840 1504 3840 
C 1901 3840 2214 3591 2214 3136 
C 2214 2687 1907 2432 1504 2432 
z
M 1504 267 
C 1139 267 749 517 749 1156 
C 749 1813 1184 2043 1498 2043 
C 1843 2043 2253 1800 2253 1156 
C 2253 491 1830 267 1504 267 
z
" transform="scale(0.015625)"/>
     </defs>
     <use xlink:href="#CMSS17-69" transform="scale(0.996264)"/>
     <use xlink:href="#CMSS17-6e" transform="translate(22.180723 0) scale(0.996264)"/>
     <use xlink:href="#CMSS17-69" transform="translate(70.385666 0) scale(0.996264)"/>
     <use xlink:href="#CMSS17-74" transform="translate(92.566389 0) scale(0.996264)"/>
     <use xlink:href="#CMSS17-3a" transform="translate(126.397956 0) scale(0.996264)"/>
     <use xlink:href="#CMSS17-38" transform="translate(194.060968 0) scale(0.996264)"/>
     <use xlink:href="#CMSS17-35" transform="translate(240.904591 0) scale(0.996264)"/>
     <use xlink:href="#CMSS17-32" transform="translate(287.748215 0) scale(0.996264)"/>
     <use xlink:href="#CMSS17-2e" transform="translate(334.591838 0) scale(0.996264)"/>
     <use xlink:href="#CMSS17-39" transform="translate(360.616043 0) scale(0.996264)"/>
     <use xlink:href="#CMSS17-35" transform="translate(407.459667 0) scale(0.996264)"/>
    </g>
    <!-- fit: 44191.26 -->
    <g transform="translate(134.017492 38.139404) scale(0.12 -0.12)">
     <defs>
      <path id="CMSS17-36" d="M 2496 4101 
C 2227 4210 2035 4229 1856 4229 
C 1024 4229 250 3368 250 2006 
C 250 265 986 -128 1510 -128 
C 1798 -128 2086 -39 2362 280 
C 2643 617 2752 898 2752 1389 
C 2752 2179 2362 2880 1779 2880 
C 1357 2880 992 2657 768 2376 
C 832 3258 1254 3840 1862 3840 
C 2029 3840 2246 3816 2496 3710 
L 2496 4101 
z
M 774 1369 
C 774 1420 774 1452 781 1548 
C 781 2045 1069 2491 1536 2491 
C 1837 2491 1990 2332 2106 2135 
C 2240 1886 2246 1650 2246 1388 
C 2246 1140 2246 891 2099 637 
C 1978 439 1818 267 1510 267 
C 902 267 800 1114 774 1369 
z
" transform="scale(0.015625)"/>
     </defs>
     <use xlink:href="#CMSS17-c" transform="scale(0.996264)"/>
     <use xlink:href="#CMSS17-74" transform="translate(50.126737 0) scale(0.996264)"/>
     <use xlink:href="#CMSS17-3a" transform="translate(83.958304 0) scale(0.996264)"/>
     <use xlink:href="#CMSS17-34" transform="translate(151.621316 0) scale(0.996264)"/>
     <use xlink:href="#CMSS17-34" transform="translate(198.464939 0) scale(0.996264)"/>
     <use xlink:href="#CMSS17-31" transform="translate(245.308563 0) scale(0.996264)"/>
     <use xlink:href="#CMSS17-39" transform="translate(292.152186 0) scale(0.996264)"/>
     <use xlink:href="#CMSS17-31" transform="translate(338.99581 0) scale(0.996264)"/>
     <use xlink:href="#CMSS17-2e" transform="translate(385.839433 0) scale(0.996264)"/>
     <use xlink:href="#CMSS17-32" transform="translate(411.863638 0) scale(0.996264)"/>
     <use xlink:href="#CMSS17-36" transform="translate(458.707262 0) scale(0.996264)"/>
    </g>
   </g>
   <g id="text_13">
    <!-- init: 831.74 -->
    <g transform="translate(273.517492 192.172193) scale(0.12 -0.12)">
     <use xlink:href="#CMSS17-69" transform="scale(0.996264)"/>
     <use xlink:href="#CMSS17-6e" transform="translate(22.180723 0) scale(0.996264)"/>
     <use xlink:href="#CMSS17-69" transform="translate(70.385666 0) scale(0.996264)"/>
     <use xlink:href="#CMSS17-74" transform="translate(92.566389 0) scale(0.996264)"/>
     <use xlink:href="#CMSS17-3a" transform="translate(126.397956 0) scale(0.996264)"/>
     <use xlink:href="#CMSS17-38" transform="translate(194.060968 0) scale(0.996264)"/>
     <use xlink:href="#CMSS17-33" transform="translate(240.904591 0) scale(0.996264)"/>
     <use xlink:href="#CMSS17-31" transform="translate(287.748215 0) scale(0.996264)"/>
     <use xlink:href="#CMSS17-2e" transform="translate(334.591838 0) scale(0.996264)"/>
     <use xlink:href="#CMSS17-37" transform="translate(360.616043 0) scale(0.996264)"/>
     <use xlink:href="#CMSS17-34" transform="translate(407.459667 0) scale(0.996264)"/>
    </g>
    <!-- fit: 22632.68 -->
    <g transform="translate(273.517492 204.459404) scale(0.12 -0.12)">
     <use xlink:href="#CMSS17-c" transform="scale(0.996264)"/>
     <use xlink:href="#CMSS17-74" transform="translate(50.126737 0) scale(0.996264)"/>
     <use xlink:href="#CMSS17-3a" transform="translate(83.958304 0) scale(0.996264)"/>
     <use xlink:href="#CMSS17-32" transform="translate(151.621316 0) scale(0.996264)"/>
     <use xlink:href="#CMSS17-32" transform="translate(198.464939 0) scale(0.996264)"/>
     <use xlink:href="#CMSS17-36" transform="translate(245.308563 0) scale(0.996264)"/>
     <use xlink:href="#CMSS17-33" transform="translate(292.152186 0) scale(0.996264)"/>
     <use xlink:href="#CMSS17-32" transform="translate(338.99581 0) scale(0.996264)"/>
     <use xlink:href="#CMSS17-2e" transform="translate(385.839433 0) scale(0.996264)"/>
     <use xlink:href="#CMSS17-36" transform="translate(411.863638 0) scale(0.996264)"/>
     <use xlink:href="#CMSS17-38" transform="translate(458.707262 0) scale(0.996264)"/>
    </g>
   </g>
   <g id="text_14">
    <!-- init: 425.02 -->
    <g transform="translate(273.517492 25.852193) scale(0.12 -0.12)">
     <use xlink:href="#CMSS17-69" transform="scale(0.996264)"/>
     <use xlink:href="#CMSS17-6e" transform="translate(22.180723 0) scale(0.996264)"/>
     <use xlink:href="#CMSS17-69" transform="translate(70.385666 0) scale(0.996264)"/>
     <use xlink:href="#CMSS17-74" transform="translate(92.566389 0) scale(0.996264)"/>
     <use xlink:href="#CMSS17-3a" transform="translate(126.397956 0) scale(0.996264)"/>
     <use xlink:href="#CMSS17-34" transform="translate(194.060968 0) scale(0.996264)"/>
     <use xlink:href="#CMSS17-32" transform="translate(240.904591 0) scale(0.996264)"/>
     <use xlink:href="#CMSS17-35" transform="translate(287.748215 0) scale(0.996264)"/>
     <use xlink:href="#CMSS17-2e" transform="translate(334.591838 0) scale(0.996264)"/>
     <use xlink:href="#CMSS17-30" transform="translate(360.616043 0) scale(0.996264)"/>
     <use xlink:href="#CMSS17-32" transform="translate(407.459667 0) scale(0.996264)"/>
    </g>
    <!-- fit: 15993.59 -->
    <g transform="translate(273.517492 38.139404) scale(0.12 -0.12)">
     <use xlink:href="#CMSS17-c" transform="scale(0.996264)"/>
     <use xlink:href="#CMSS17-74" transform="translate(50.126737 0) scale(0.996264)"/>
     <use xlink:href="#CMSS17-3a" transform="translate(83.958304 0) scale(0.996264)"/>
     <use xlink:href="#CMSS17-31" transform="translate(151.621316 0) scale(0.996264)"/>
     <use xlink:href="#CMSS17-35" transform="translate(198.464939 0) scale(0.996264)"/>
     <use xlink:href="#CMSS17-39" transform="translate(245.308563 0) scale(0.996264)"/>
     <use xlink:href="#CMSS17-39" transform="translate(292.152186 0) scale(0.996264)"/>
     <use xlink:href="#CMSS17-33" transform="translate(338.99581 0) scale(0.996264)"/>
     <use xlink:href="#CMSS17-2e" transform="translate(385.839433 0) scale(0.996264)"/>
     <use xlink:href="#CMSS17-35" transform="translate(411.863638 0) scale(0.996264)"/>
     <use xlink:href="#CMSS17-39" transform="translate(458.707262 0) scale(0.996264)"/>
    </g>
   </g>
   <g id="text_15">
    <!-- init: 1048.93 -->
    <g transform="translate(413.017492 109.012193) scale(0.12 -0.12)">
     <use xlink:href="#CMSS17-69" transform="scale(0.996264)"/>
     <use xlink:href="#CMSS17-6e" transform="translate(22.180723 0) scale(0.996264)"/>
     <use xlink:href="#CMSS17-69" transform="translate(70.385666 0) scale(0.996264)"/>
     <use xlink:href="#CMSS17-74" transform="translate(92.566389 0) scale(0.996264)"/>
     <use xlink:href="#CMSS17-3a" transform="translate(126.397956 0) scale(0.996264)"/>
     <use xlink:href="#CMSS17-31" transform="translate(194.060968 0) scale(0.996264)"/>
     <use xlink:href="#CMSS17-30" transform="translate(240.904591 0) scale(0.996264)"/>
     <use xlink:href="#CMSS17-34" transform="translate(287.748215 0) scale(0.996264)"/>
     <use xlink:href="#CMSS17-38" transform="translate(334.591838 0) scale(0.996264)"/>
     <use xlink:href="#CMSS17-2e" transform="translate(381.435462 0) scale(0.996264)"/>
     <use xlink:href="#CMSS17-39" transform="translate(407.459667 0) scale(0.996264)"/>
     <use xlink:href="#CMSS17-33" transform="translate(454.30329 0) scale(0.996264)"/>
    </g>
    <!-- fit: 70193.17 -->
    <g transform="translate(413.017492 121.299404) scale(0.12 -0.12)">
     <use xlink:href="#CMSS17-c" transform="scale(0.996264)"/>
     <use xlink:href="#CMSS17-74" transform="translate(50.126737 0) scale(0.996264)"/>
     <use xlink:href="#CMSS17-3a" transform="translate(83.958304 0) scale(0.996264)"/>
     <use xlink:href="#CMSS17-37" transform="translate(151.621316 0) scale(0.996264)"/>
     <use xlink:href="#CMSS17-30" transform="translate(198.464939 0) scale(0.996264)"/>
     <use xlink:href="#CMSS17-31" transform="translate(245.308563 0) scale(0.996264)"/>
     <use xlink:href="#CMSS17-39" transform="translate(292.152186 0) scale(0.996264)"/>
     <use xlink:href="#CMSS17-33" transform="translate(338.99581 0) scale(0.996264)"/>
     <use xlink:href="#CMSS17-2e" transform="translate(385.839433 0) scale(0.996264)"/>
     <use xlink:href="#CMSS17-31" transform="translate(411.863638 0) scale(0.996264)"/>
     <use xlink:href="#CMSS17-37" transform="translate(458.707262 0) scale(0.996264)"/>
    </g>
   </g>
   <g id="text_16">
    <!-- init: 194.45 -->
    <g transform="translate(552.517492 275.332193) scale(0.12 -0.12)">
     <use xlink:href="#CMSS17-69" transform="scale(0.996264)"/>
     <use xlink:href="#CMSS17-6e" transform="translate(22.180723 0) scale(0.996264)"/>
     <use xlink:href="#CMSS17-69" transform="translate(70.385666 0) scale(0.996264)"/>
     <use xlink:href="#CMSS17-74" transform="translate(92.566389 0) scale(0.996264)"/>
     <use xlink:href="#CMSS17-3a" transform="translate(126.397956 0) scale(0.996264)"/>
     <use xlink:href="#CMSS17-31" transform="translate(194.060968 0) scale(0.996264)"/>
     <use xlink:href="#CMSS17-39" transform="translate(240.904591 0) scale(0.996264)"/>
     <use xlink:href="#CMSS17-34" transform="translate(287.748215 0) scale(0.996264)"/>
     <use xlink:href="#CMSS17-2e" transform="translate(334.591838 0) scale(0.996264)"/>
     <use xlink:href="#CMSS17-34" transform="translate(360.616043 0) scale(0.996264)"/>
     <use xlink:href="#CMSS17-35" transform="translate(407.459667 0) scale(0.996264)"/>
    </g>
    <!-- fit: 56704.49 -->
    <g transform="translate(552.517492 287.619404) scale(0.12 -0.12)">
     <use xlink:href="#CMSS17-c" transform="scale(0.996264)"/>
     <use xlink:href="#CMSS17-74" transform="translate(50.126737 0) scale(0.996264)"/>
     <use xlink:href="#CMSS17-3a" transform="translate(83.958304 0) scale(0.996264)"/>
     <use xlink:href="#CMSS17-35" transform="translate(151.621316 0) scale(0.996264)"/>
     <use xlink:href="#CMSS17-36" transform="translate(198.464939 0) scale(0.996264)"/>
     <use xlink:href="#CMSS17-37" transform="translate(245.308563 0) scale(0.996264)"/>
     <use xlink:href="#CMSS17-30" transform="translate(292.152186 0) scale(0.996264)"/>
     <use xlink:href="#CMSS17-34" transform="translate(338.99581 0) scale(0.996264)"/>
     <use xlink:href="#CMSS17-2e" transform="translate(385.839433 0) scale(0.996264)"/>
     <use xlink:href="#CMSS17-34" transform="translate(411.863638 0) scale(0.996264)"/>
     <use xlink:href="#CMSS17-39" transform="translate(458.707262 0) scale(0.996264)"/>
    </g>
   </g>
   <g id="text_17">
    <!-- init: 548.55 -->
    <g transform="translate(552.517492 192.172193) scale(0.12 -0.12)">
     <use xlink:href="#CMSS17-69" transform="scale(0.996264)"/>
     <use xlink:href="#CMSS17-6e" transform="translate(22.180723 0) scale(0.996264)"/>
     <use xlink:href="#CMSS17-69" transform="translate(70.385666 0) scale(0.996264)"/>
     <use xlink:href="#CMSS17-74" transform="translate(92.566389 0) scale(0.996264)"/>
     <use xlink:href="#CMSS17-3a" transform="translate(126.397956 0) scale(0.996264)"/>
     <use xlink:href="#CMSS17-35" transform="translate(194.060968 0) scale(0.996264)"/>
     <use xlink:href="#CMSS17-34" transform="translate(240.904591 0) scale(0.996264)"/>
     <use xlink:href="#CMSS17-38" transform="translate(287.748215 0) scale(0.996264)"/>
     <use xlink:href="#CMSS17-2e" transform="translate(334.591838 0) scale(0.996264)"/>
     <use xlink:href="#CMSS17-35" transform="translate(360.616043 0) scale(0.996264)"/>
     <use xlink:href="#CMSS17-35" transform="translate(407.459667 0) scale(0.996264)"/>
    </g>
    <!-- fit: 63374.39 -->
    <g transform="translate(552.517492 204.459404) scale(0.12 -0.12)">
     <use xlink:href="#CMSS17-c" transform="scale(0.996264)"/>
     <use xlink:href="#CMSS17-74" transform="translate(50.126737 0) scale(0.996264)"/>
     <use xlink:href="#CMSS17-3a" transform="translate(83.958304 0) scale(0.996264)"/>
     <use xlink:href="#CMSS17-36" transform="translate(151.621316 0) scale(0.996264)"/>
     <use xlink:href="#CMSS17-33" transform="translate(198.464939 0) scale(0.996264)"/>
     <use xlink:href="#CMSS17-33" transform="translate(245.308563 0) scale(0.996264)"/>
     <use xlink:href="#CMSS17-37" transform="translate(292.152186 0) scale(0.996264)"/>
     <use xlink:href="#CMSS17-34" transform="translate(338.99581 0) scale(0.996264)"/>
     <use xlink:href="#CMSS17-2e" transform="translate(385.839433 0) scale(0.996264)"/>
     <use xlink:href="#CMSS17-33" transform="translate(411.863638 0) scale(0.996264)"/>
     <use xlink:href="#CMSS17-39" transform="translate(458.707262 0) scale(0.996264)"/>
    </g>
   </g>
   <g id="text_18">
    <!-- init: 914.06 -->
    <g transform="translate(552.517492 25.852193) scale(0.12 -0.12)">
     <use xlink:href="#CMSS17-69" transform="scale(0.996264)"/>
     <use xlink:href="#CMSS17-6e" transform="translate(22.180723 0) scale(0.996264)"/>
     <use xlink:href="#CMSS17-69" transform="translate(70.385666 0) scale(0.996264)"/>
     <use xlink:href="#CMSS17-74" transform="translate(92.566389 0) scale(0.996264)"/>
     <use xlink:href="#CMSS17-3a" transform="translate(126.397956 0) scale(0.996264)"/>
     <use xlink:href="#CMSS17-39" transform="translate(194.060968 0) scale(0.996264)"/>
     <use xlink:href="#CMSS17-31" transform="translate(240.904591 0) scale(0.996264)"/>
     <use xlink:href="#CMSS17-34" transform="translate(287.748215 0) scale(0.996264)"/>
     <use xlink:href="#CMSS17-2e" transform="translate(334.591838 0) scale(0.996264)"/>
     <use xlink:href="#CMSS17-30" transform="translate(360.616043 0) scale(0.996264)"/>
     <use xlink:href="#CMSS17-36" transform="translate(407.459667 0) scale(0.996264)"/>
    </g>
    <!-- fit: 66663.95 -->
    <g transform="translate(552.517492 38.139404) scale(0.12 -0.12)">
     <use xlink:href="#CMSS17-c" transform="scale(0.996264)"/>
     <use xlink:href="#CMSS17-74" transform="translate(50.126737 0) scale(0.996264)"/>
     <use xlink:href="#CMSS17-3a" transform="translate(83.958304 0) scale(0.996264)"/>
     <use xlink:href="#CMSS17-36" transform="translate(151.621316 0) scale(0.996264)"/>
     <use xlink:href="#CMSS17-36" transform="translate(198.464939 0) scale(0.996264)"/>
     <use xlink:href="#CMSS17-36" transform="translate(245.308563 0) scale(0.996264)"/>
     <use xlink:href="#CMSS17-36" transform="translate(292.152186 0) scale(0.996264)"/>
     <use xlink:href="#CMSS17-33" transform="translate(338.99581 0) scale(0.996264)"/>
     <use xlink:href="#CMSS17-2e" transform="translate(385.839433 0) scale(0.996264)"/>
     <use xlink:href="#CMSS17-39" transform="translate(411.863638 0) scale(0.996264)"/>
     <use xlink:href="#CMSS17-35" transform="translate(458.707262 0) scale(0.996264)"/>
    </g>
   </g>
   <g id="legend_1">
    <g id="patch_5">
     <path d="M 645.317492 206.793486 
L 756.792926 206.793486 
Q 759.392926 206.793486 759.392926 204.193486 
L 759.392926 142.846514 
Q 759.392926 140.246514 756.792926 140.246514 
L 645.317492 140.246514 
Q 642.717492 140.246514 642.717492 142.846514 
L 642.717492 204.193486 
Q 642.717492 206.793486 645.317492 206.793486 
z
" style="fill: #ffffff; opacity: 0.8; stroke: #cccccc; stroke-linejoin: miter"/>
    </g>
    <g id="line2d_33">
     <path d="M 647.917492 157.805271 
L 660.917492 157.805271 
L 673.917492 157.805271 
" style="fill: none; stroke: #ffffff; stroke-opacity: 0.5; stroke-width: 1.5; stroke-linecap: square"/>
     <defs>
      <path id="m5253de5e61" d="M 0 7.5 
C 1.989023 7.5 3.896849 6.709753 5.303301 5.303301 
C 6.709753 3.896849 7.5 1.989023 7.5 0 
C 7.5 -1.989023 6.709753 -3.896849 5.303301 -5.303301 
C 3.896849 -6.709753 1.989023 -7.5 0 -7.5 
C -1.989023 -7.5 -3.896849 -6.709753 -5.303301 -5.303301 
C -6.709753 -3.896849 -7.5 -1.989023 -7.5 0 
C -7.5 1.989023 -6.709753 3.896849 -5.303301 5.303301 
C -3.896849 6.709753 -1.989023 7.5 0 7.5 
z
" style="stroke: #ffffff; stroke-opacity: 0.5"/>
     </defs>
     <g>
      <use xlink:href="#m5253de5e61" x="660.917492" y="157.805271" style="fill: #ff7f0e; fill-opacity: 0.5; stroke: #ffffff; stroke-opacity: 0.5"/>
     </g>
    </g>
    <g id="text_19">
     <!-- Initialization -->
     <g transform="translate(684.317492 154.440542) scale(0.13 -0.13)">
      <defs>
       <path id="CMSS17-49" d="M 1094 4416 
L 557 4416 
L 557 0 
L 1094 0 
L 1094 4416 
z
" transform="scale(0.015625)"/>
       <path id="CMSS17-61" d="M 2406 1791 
C 2406 2392 1978 2808 1402 2808 
C 1120 2808 813 2757 461 2553 
L 499 2135 
C 659 2248 934 2432 1395 2432 
C 1722 2432 1920 2180 1920 1782 
L 1920 1536 
C 896 1536 256 1238 256 726 
C 256 461 416 -64 947 -64 
C 1043 -64 1562 -64 1933 217 
L 1933 -19 
L 2406 -19 
L 2406 1791 
z
M 1920 816 
C 1920 701 1920 548 1728 434 
C 1562 325 1350 325 1261 325 
C 941 325 723 511 723 744 
C 723 1211 1722 1211 1920 1211 
L 1920 816 
z
" transform="scale(0.015625)"/>
       <path id="CMSS17-6c" d="M 947 4416 
L 474 4416 
L 474 0 
L 947 0 
L 947 4416 
z
" transform="scale(0.015625)"/>
       <path id="CMSS17-7a" d="M 2400 2502 
L 2400 2750 
L 250 2750 
L 250 2368 
L 1069 2368 
C 1146 2368 1222 2368 1299 2368 
L 1747 2368 
L 166 261 
L 166 0 
L 2419 0 
L 2419 395 
L 1549 395 
C 1472 395 1395 395 1318 395 
L 826 395 
L 2400 2502 
z
" transform="scale(0.015625)"/>
       <path id="CMSS17-6f" d="M 2829 1356 
C 2829 2176 2221 2816 1504 2816 
C 768 2816 173 2157 173 1356 
C 173 544 787 -64 1498 -64 
C 2227 -64 2829 563 2829 1356 
z
M 1504 337 
C 1050 337 659 709 659 1408 
C 659 2151 1114 2427 1498 2427 
C 1914 2427 2342 2126 2342 1408 
C 2342 683 1926 337 1504 337 
z
" transform="scale(0.015625)"/>
      </defs>
      <use xlink:href="#CMSS17-49" transform="scale(0.996264)"/>
      <use xlink:href="#CMSS17-6e" transform="translate(25.783926 0) scale(0.996264)"/>
      <use xlink:href="#CMSS17-69" transform="translate(73.988869 0) scale(0.996264)"/>
      <use xlink:href="#CMSS17-74" transform="translate(96.169592 0) scale(0.996264)"/>
      <use xlink:href="#CMSS17-69" transform="translate(130.001158 0) scale(0.996264)"/>
      <use xlink:href="#CMSS17-61" transform="translate(152.181881 0) scale(0.996264)"/>
      <use xlink:href="#CMSS17-6c" transform="translate(197.103802 0) scale(0.996264)"/>
      <use xlink:href="#CMSS17-69" transform="translate(219.284525 0) scale(0.996264)"/>
      <use xlink:href="#CMSS17-7a" transform="translate(241.465248 0) scale(0.996264)"/>
      <use xlink:href="#CMSS17-61" transform="translate(282.14312 0) scale(0.996264)"/>
      <use xlink:href="#CMSS17-74" transform="translate(327.065041 0) scale(0.996264)"/>
      <use xlink:href="#CMSS17-69" transform="translate(360.896607 0) scale(0.996264)"/>
      <use xlink:href="#CMSS17-6f" transform="translate(383.07733 0) scale(0.996264)"/>
      <use xlink:href="#CMSS17-6e" transform="translate(429.920954 0) scale(0.996264)"/>
     </g>
     <!-- time -->
     <g transform="translate(684.317492 167.751688) scale(0.13 -0.13)">
      <defs>
       <path id="CMSS17-6d" d="M 4288 1877 
C 4288 2308 4179 2816 3462 2816 
C 2982 2816 2694 2516 2566 2331 
C 2451 2670 2182 2816 1798 2816 
C 1363 2816 1088 2568 941 2389 
L 941 2758 
L 474 2758 
L 474 0 
L 960 0 
L 960 1559 
C 960 1939 1101 2428 1555 2428 
C 2138 2428 2138 2016 2138 1829 
L 2138 0 
L 2624 0 
L 2624 1559 
C 2624 1939 2765 2428 3219 2428 
C 3802 2428 3802 2016 3802 1829 
L 3802 0 
L 4288 0 
L 4288 1877 
z
" transform="scale(0.015625)"/>
       <path id="CMSS17-65" d="M 2502 1377 
C 2502 1590 2490 2003 2285 2345 
C 2061 2713 1696 2816 1421 2816 
C 755 2816 192 2188 192 1375 
C 192 582 774 -64 1510 -64 
C 1798 -64 2150 19 2470 248 
C 2470 274 2458 414 2451 420 
C 2451 433 2432 630 2432 656 
C 2125 407 1773 325 1517 325 
C 1107 325 666 667 646 1377 
L 2502 1377 
z
M 698 1728 
C 781 2084 1062 2421 1421 2421 
C 1517 2421 1965 2421 2080 1728 
L 698 1728 
z
" transform="scale(0.015625)"/>
      </defs>
      <use xlink:href="#CMSS17-74" transform="scale(0.996264)"/>
      <use xlink:href="#CMSS17-69" transform="translate(33.831567 0) scale(0.996264)"/>
      <use xlink:href="#CMSS17-6d" transform="translate(56.01229 0) scale(0.996264)"/>
      <use xlink:href="#CMSS17-65" transform="translate(130.241544 0) scale(0.996264)"/>
     </g>
    </g>
    <g id="line2d_34">
     <path d="M 647.917492 189.128757 
L 660.917492 189.128757 
L 673.917492 189.128757 
" style="fill: none; stroke: #ffffff; stroke-opacity: 0.8; stroke-width: 1.5; stroke-linecap: square"/>
     <defs>
      <path id="m5a6aacff5a" d="M 0 7.5 
C 1.989023 7.5 3.896849 6.709753 5.303301 5.303301 
C 6.709753 3.896849 7.5 1.989023 7.5 0 
C 7.5 -1.989023 6.709753 -3.896849 5.303301 -5.303301 
C 3.896849 -6.709753 1.989023 -7.5 0 -7.5 
C -1.989023 -7.5 -3.896849 -6.709753 -5.303301 -5.303301 
C -6.709753 -3.896849 -7.5 -1.989023 -7.5 0 
C -7.5 1.989023 -6.709753 3.896849 -5.303301 5.303301 
C -3.896849 6.709753 -1.989023 7.5 0 7.5 
z
" style="stroke: #ffffff; stroke-opacity: 0.8"/>
     </defs>
     <g>
      <use xlink:href="#m5a6aacff5a" x="660.917492" y="189.128757" style="fill: #1f77b4; fill-opacity: 0.8; stroke: #ffffff; stroke-opacity: 0.8"/>
     </g>
    </g>
    <g id="text_20">
     <!-- Likelihood -->
     <g transform="translate(684.317492 185.764028) scale(0.13 -0.13)">
      <defs>
       <path id="CMSS17-4c" d="M 1670 414 
C 1594 414 1517 414 1440 414 
L 1101 414 
L 1101 4416 
L 563 4416 
L 563 0 
L 3002 0 
L 3002 414 
L 1670 414 
z
" transform="scale(0.015625)"/>
       <path id="CMSS17-6b" d="M 1696 1688 
L 2688 2739 
L 2074 2739 
L 954 1554 
L 954 4416 
L 480 4416 
L 480 0 
L 947 0 
L 947 892 
L 1376 1344 
L 2278 0 
L 2822 0 
L 1696 1688 
z
" transform="scale(0.015625)"/>
       <path id="CMSS17-68" d="M 2618 1891 
C 2618 2292 2522 2820 1798 2820 
C 1395 2820 1133 2623 947 2407 
L 947 4448 
L 474 4448 
L 474 32 
L 960 32 
L 960 1573 
C 960 1973 1114 2432 1549 2432 
C 2112 2432 2131 2056 2131 1839 
L 2131 32 
L 2618 32 
L 2618 1891 
z
" transform="scale(0.015625)"/>
       <path id="CMSS17-64" d="M 2611 4416 
L 2138 4416 
L 2138 2438 
C 1939 2603 1613 2756 1254 2756 
C 672 2756 211 2131 211 1347 
C 211 562 666 -64 1235 -64 
C 1677 -64 1971 172 2125 306 
L 2125 -13 
L 2611 -13 
L 2611 4416 
z
M 2125 836 
C 2125 747 2125 653 1926 482 
C 1798 375 1645 325 1498 325 
C 1152 325 698 576 698 1340 
C 698 2134 1210 2368 1562 2368 
C 1798 2368 1990 2254 2125 2065 
L 2125 836 
z
" transform="scale(0.015625)"/>
      </defs>
      <use xlink:href="#CMSS17-4c" transform="scale(0.996264)"/>
      <use xlink:href="#CMSS17-69" transform="translate(50.687105 0) scale(0.996264)"/>
      <use xlink:href="#CMSS17-6b" transform="translate(72.867828 0) scale(0.996264)"/>
      <use xlink:href="#CMSS17-65" transform="translate(115.867864 0) scale(0.996264)"/>
      <use xlink:href="#CMSS17-6c" transform="translate(157.506686 0) scale(0.996264)"/>
      <use xlink:href="#CMSS17-69" transform="translate(179.687409 0) scale(0.996264)"/>
      <use xlink:href="#CMSS17-68" transform="translate(201.868132 0) scale(0.996264)"/>
      <use xlink:href="#CMSS17-6f" transform="translate(250.073075 0) scale(0.996264)"/>
      <use xlink:href="#CMSS17-6f" transform="translate(299.519137 0) scale(0.996264)"/>
      <use xlink:href="#CMSS17-64" transform="translate(348.965199 0) scale(0.996264)"/>
     </g>
     <!-- maximization -->
     <g transform="translate(684.317492 199.075174) scale(0.13 -0.13)">
      <defs>
       <path id="CMSS17-78" d="M 1587 1414 
L 2656 2739 
L 2099 2739 
L 1363 1777 
L 602 2739 
L 32 2739 
L 1139 1414 
L 0 0 
L 563 0 
L 1363 1121 
L 2195 0 
L 2758 0 
L 1587 1414 
z
" transform="scale(0.015625)"/>
      </defs>
      <use xlink:href="#CMSS17-6d" transform="scale(0.996264)"/>
      <use xlink:href="#CMSS17-61" transform="translate(74.229254 0) scale(0.996264)"/>
      <use xlink:href="#CMSS17-78" transform="translate(119.151175 0) scale(0.996264)"/>
      <use xlink:href="#CMSS17-69" transform="translate(162.151317 0) scale(0.996264)"/>
      <use xlink:href="#CMSS17-6d" transform="translate(184.33204 0) scale(0.996264)"/>
      <use xlink:href="#CMSS17-69" transform="translate(258.561294 0) scale(0.996264)"/>
      <use xlink:href="#CMSS17-7a" transform="translate(280.742017 0) scale(0.996264)"/>
      <use xlink:href="#CMSS17-61" transform="translate(321.419889 0) scale(0.996264)"/>
      <use xlink:href="#CMSS17-74" transform="translate(366.34181 0) scale(0.996264)"/>
      <use xlink:href="#CMSS17-69" transform="translate(400.173376 0) scale(0.996264)"/>
      <use xlink:href="#CMSS17-6f" transform="translate(422.354099 0) scale(0.996264)"/>
      <use xlink:href="#CMSS17-6e" transform="translate(469.197723 0) scale(0.996264)"/>
     </g>
    </g>
   </g>
  </g>
 </g>
 <defs>
  <clipPath id="p8cc736ff71">
   <rect x="50.317492" y="7.2" width="558" height="332.64"/>
  </clipPath>
 </defs>
</svg>
